<svg viewBox="0 0 816 1158" xmlns="http://www.w3.org/2000/svg"><path d="m798.28 1134.55a69.82 69.82 0 0 1 -52.28 23.45h-676a70 70 0 0 1 -70-70v-1018a69.71 69.71 0 0 1 16.61-45.27z" fill="#060709"/><path d="m70 1138a50.06 50.06 0 0 1 -50-50v-1018a52.36 52.36 0 0 1 .28-5.32l751.09 1066.4a50 50 0 0 1 -25.37 6.92z" fill="#f5f1e5"/><path d="m70 1118a30 30 0 0 1 -30-30v-960.6l697.7 990.6z" fill="#060709"/><path d="m70 1098a10 10 0 0 1 -10-10v-897.47l639.15 907.47z" fill="#f5f1e5"/><path d="m80 1078v-824.34l580.6 824.34z" fill="#060709"/><path d="m100 1058v-741.21l522.05 741.21z" fill="#f5f1e5"/><path d="m120 1038v-658.08l463.5 658.08z" fill="#060709"/><path d="m140 1018v-574.95l404.95 574.95z" fill="#f5f1e5"/><path d="m160 998v-491.82l346.4 491.82z" fill="#060709"/><path d="m180 978v-408.7l287.85 408.7z" fill="#f5f1e5"/><path d="m816 70v1018a69.75 69.75 0 0 1 -17.72 46.55l-781.67-1109.82a69.83 69.83 0 0 1 53.39-24.73h676a70 70 0 0 1 70 70z" fill="#f5f1e5"/><path d="m43.22 27.78a49.83 49.83 0 0 1 26.78-7.78h676a50.06 50.06 0 0 1 50 50v1018a49.74 49.74 0 0 1 -.6 7.73z" fill="#060709"/><path d="m76.29 40h669.71a30 30 0 0 1 30 30v963.45z" fill="#f5f1e5"/><path d="m114.84 60h631.16a10 10 0 0 1 10 10v900.32z" fill="#060709"/><path d="m153.39 80h582.61v827.19z" fill="#f5f1e5"/><path d="m191.94 100h524.06v744.06z" fill="#060709"/><path d="m230.49 120h465.51v660.94z" fill="#f5f1e5"/><path d="m269.04 140h406.96v577.81z" fill="#060709"/><path d="m307.59 160h348.41v494.68z" fill="#f5f1e5"/><path d="m346.14 180h289.86v411.55z" fill="#060709"/></svg>