<svg viewBox="0 0 82 72" xmlns="http://www.w3.org/2000/svg"><rect fill="#564324" height="70" rx="10" width="82" y="2"/><rect fill="#735c2c" height="70" rx="10" width="82"/><path d="m78.49 11v2a8 8 0 0 0 -8-8h-59a8 8 0 0 0 -8 8v-2a8 8 0 0 1 8-8h59a8 8 0 0 1 8 8z" fill="#634d27"/><path d="m78.49 13v46a8 8 0 0 1 -8 8h-59a8 8 0 0 1 -8-8v-46a8 8 0 0 1 8-8h59a8 8 0 0 1 8 8z" fill="#b4924b"/><g fill="#2f2924"><path d="m37.62 22a4.73 4.73 0 0 1 -1.26-.15q-.54-.15-.54-.45v-2.7a3.08 3.08 0 0 0 -.36-1.5 1.43 1.43 0 0 0 -1.38-.66h-3.36a1.68 1.68 0 0 0 -1.41.66 2.67 2.67 0 0 0 -.51 1.68v31.33a2 2 0 0 0 .48 1.38 1.91 1.91 0 0 0 1.5.54h3.06a1.88 1.88 0 0 0 1.56-.54 1.91 1.91 0 0 0 .42-1.2v-10.2q0-.54-.6-.54h-4a.51.51 0 0 1 -.42-.3 3 3 0 0 1 -.14-1.35 2.84 2.84 0 0 1 .18-1.26.54.54 0 0 1 .48-.3h6.6q1.08 0 1.32.66a3.84 3.84 0 0 1 .24 1.32v11.58a5.25 5.25 0 0 1 -1.32 4 5.44 5.44 0 0 1 -3.9 1.26h-3.9q-5.22 0-5.22-5v-31.61a5.38 5.38 0 0 1 1.23-3.93 5.48 5.48 0 0 1 4-1.23h3.9a5.72 5.72 0 0 1 3.9 1.17 4.86 4.86 0 0 1 1.32 3.81v2.88q0 .24-.54.42a4.21 4.21 0 0 1 -1.33.23z"/><path d="m53.46 13.49a5.72 5.72 0 0 1 3.9 1.17 4.86 4.86 0 0 1 1.32 3.81v31.53a5.15 5.15 0 0 1 -1.32 4 5.53 5.53 0 0 1 -3.9 1.23h-3.9a5.84 5.84 0 0 1 -3.93-1.23 4.8 4.8 0 0 1 -1.35-3.81v-31.54a5.08 5.08 0 0 1 1.35-3.93 5.64 5.64 0 0 1 3.93-1.23zm1.5 5a2.08 2.08 0 0 0 -.45-1.38 1.81 1.81 0 0 0 -1.51-.56h-3.08a1.66 1.66 0 0 0 -1.44.66 2.68 2.68 0 0 0 -.48 1.62v31.38a2 2 0 0 0 .48 1.38 1.83 1.83 0 0 0 1.44.54h3.08a1.66 1.66 0 0 0 1.44-.66 2.68 2.68 0 0 0 .56-1.62z"/></g></svg>