<svg viewBox="0 0 36 38" xmlns="http://www.w3.org/2000/svg"><rect fill="#564324" height="36" rx="4" width="36" y="2"/><rect fill="#735c2c" height="36" rx="4" width="36"/><path d="m33.5 4.5v2a2 2 0 0 0 -2-2h-27a2 2 0 0 0 -2 2v-2a2 2 0 0 1 2-2h27a2 2 0 0 1 2 2z" fill="#634d27"/><rect fill="#b4924b" height="29" rx="2" width="31" x="2.5" y="4.5"/><path d="m17.47 29.73-.8-.68v-.38a10.12 10.12 0 0 0 -2.82-5.84 10.09 10.09 0 0 0 -5.85-2.83h-.39l-.68-.8v-.92l.68-.8h.39a10.12 10.12 0 0 0 5.84-2.82 10.09 10.09 0 0 0 2.79-5.81v-.38l.8-.68h.93l.79.68v.38a10.09 10.09 0 0 0 2.82 5.84 10.09 10.09 0 0 0 5.81 2.79h.39l.67.8v.92l-.67.8-.39.05a9.76 9.76 0 0 0 -8.63 8.63v.38l-.79.68z" fill="#ffc0c8"/><path d="m27.93 18.64-.18-.23a11.2 11.2 0 0 1 -6.41-3.08 11.18 11.18 0 0 1 -3.09-6.41l-.25-.19h-.19l-.22.19a11.23 11.23 0 0 1 -3.08 6.4 11.14 11.14 0 0 1 -6.42 3.09l-.19.23v.18l.19.23a11.2 11.2 0 0 1 6.41 3.08 11.18 11.18 0 0 1 3.09 6.41l.22.19h.19l.22-.19a10.76 10.76 0 0 1 9.5-9.49l.18-.23z" fill="#ec1f26"/></svg>