<svg viewBox="0 0 36 38" xmlns="http://www.w3.org/2000/svg">
    <rect fill="#564324" height="36" rx="4" width="36" y="2" />
    <rect fill="#735c2c" height="36" rx="4" width="36" />
    <path d="m33.5 4.5v2a2 2 0 0 0 -2-2h-27a2 2 0 0 0 -2 2v-2a2 2 0 0 1 2-2h27a2 2 0 0 1 2 2z"
        fill="#634d27" />
    <rect fill="#b4924b" height="29" rx="2" width="31" x="2.5" y="4.5" />
    <g fill="#060709">
        <path
            d="m11.43 28.42h12.57a6.18 6.18 0 0 1 -6.11-5.42l-.17-.15-.17.15a6.18 6.18 0 0 1 -6.12 5.42z" />
        <path
            d="m27.72 19.75a5 5 0 0 0 -3-4.6 15.11 15.11 0 0 1 -4.78-3.15l-2.15-2.19h-.14l-2.15 2.19a15.11 15.11 0 0 1 -4.74 3.19 5 5 0 1 0 7 4.83 5 5 0 0 0 10-.23z" />
    </g>
</svg>