<svg viewBox="0 0 36 38" xmlns="http://www.w3.org/2000/svg">
    <rect fill="#564324" height="36" rx="4" width="36" y="2" />
    <rect fill="#735c2c" height="36" rx="4" width="36" />
    <path d="m33.5 4.5v2a2 2 0 0 0 -2-2h-27a2 2 0 0 0 -2 2v-2a2 2 0 0 1 2-2h27a2 2 0 0 1 2 2z"
        fill="#634d27" />
    <rect fill="#b4924b" height="29" rx="2" width="31" x="2.5" y="4.5" />
    <g fill="#060709">
        <path
            d="m27.72 20.64a5 5 0 0 1 -10 0 5 5 0 1 1 -5-5h.43a4.94 4.94 0 0 1 -.43-2 5 5 0 1 1 10 0 4.94 4.94 0 0 1 -.44 2h.44a5 5 0 0 1 5 5z" />
        <path
            d="m23.69 28.5h-11.9a5.82 5.82 0 0 0 5.78-5.1l.17-.14.16.14a5.83 5.83 0 0 0 5.79 5.1z" />
    </g>
</svg>