<svg viewBox="0 0 816 1158" xmlns="http://www.w3.org/2000/svg">
    <rect fill="#060709" height="1158" rx="70" width="816" />
    <g fill="#f5f1e5">
        <path
            d="m57.83 53.7q5.54 0 7.5 1.74a6.54 6.54 0 0 1 2.3 4.1c0 .22.18 1.88.55 5s.81 7.11 1.34 12 1.13 10.46 1.82 16.58 1.39 12.46 2.13 18.88 1.45 12.72 2.14 18.88 1.28 11.67 1.81 16.51 1 8.75 1.27 11.69.47 4.48.47 4.59-.18.5-.87.87a9.28 9.28 0 0 1 -3.87.55 9.27 9.27 0 0 1 -3.71-.47 2.6 2.6 0 0 1 -1-.79q0-.17-.39-3.48c-.27-2.21-.56-4.64-.87-7.27s-.61-5.06-.87-7.27-.4-3.47-.4-3.79c-.1-.73-.47-1.1-1.1-1.1h-15.83c-.85 0-1.32.31-1.43.94 0 .22-.15 1.43-.47 3.64s-.63 4.63-1 7.26-.61 5.09-.87 7.35-.39 3.45-.39 3.56a2.09 2.09 0 0 1 -1 1 10.57 10.57 0 0 1 -4 .47 11.33 11.33 0 0 1 -3.95-.4c-.53-.26-.74-.55-.63-.86 0-.11.16-1.64.47-4.59s.77-6.84 1.35-11.69 1.2-10.4 1.88-16.6 1.4-12.48 2.14-19 1.47-12.8 2.21-19 1.37-11.69 1.89-16.59 1-8.85 1.35-11.85.55-4.61.55-4.82a6.9 6.9 0 0 1 2.21-4.42q1.91-1.62 7.27-1.62zm7 78.84c.84 0 1.16-.53 1-1.58 0-.1-.16-1.39-.47-3.87s-.72-5.66-1.19-9.56-1-8.22-1.58-13-1.16-9.38-1.74-13.91-1.18-8.62-1.6-12.43-.74-6.69-1-8.69c-.1-.84-.21-1.21-.31-1.11a2.8 2.8 0 0 0 -.32 1.11q-.31 3-1 8.69t-1.48 12.48q-.78 6.8-1.73 13.91t-1.66 13c-.48 3.9-.87 7.11-1.19 9.64s-.47 3.85-.47 4c0 .95.31 1.42.95 1.42z" />
        <text font-family="ArvilSans, Arvil" font-size="158"
            transform="matrix(-1 0 0 -1 777.02 991.7)">A
        </text>
        <path
            d="m75.46 265.42h-35.23a17.28 17.28 0 0 0 17.13-15.09l.48-.41.49.41a17.27 17.27 0 0 0 17.13 15.09z" />
        <path
            d="m43.85 255.14a14 14 0 0 0 14-13.37 14 14 0 1 0 19.48-13.53 42.07 42.07 0 0 1 -13.25-8.91l-6-6h-.42l-6 6a42.07 42.07 0 0 1 -13.25 8.91 14 14 0 0 0 5.49 26.9z" />
        <path
            d="m769.64 890.58h-35.23a17.27 17.27 0 0 1 17.13 15.09l.48.41.49-.41a17.27 17.27 0 0 1 17.13-15.09z" />
        <path
            d="m724 914.86a14 14 0 0 0 8.52 12.9 42 42 0 0 1 13.26 8.91l6 6h.41l6-6a42 42 0 0 1 13.26-8.91 14 14 0 1 0 -19.45-13.53 14 14 0 0 0 -28 .63z" />
        <path
            d="m600.5 863.76h-385c96.14 0 175.48-71.92 187.19-164.89l5.31-4.51 5.31 4.51c11.69 92.97 91.02 164.89 187.19 164.89z" />
        <path
            d="m255.09 751.37a153.08 153.08 0 0 0 152.91-146.14 153.08 153.08 0 1 0 212.91-147.81 459.12 459.12 0 0 1 -144.85-97.42l-65.78-65.78h-4.56l-65.78 65.78a459.12 459.12 0 0 1 -144.85 97.4 153.1 153.1 0 0 0 60 294zm306.16-285c72.76 0 132 59.2 132 132s-59.2 132-132 132-132-59.2-132-132 59.23-132.05 132-132.05z" />
        <path
            d="m561.25 709.14a110.85 110.85 0 1 0 -110.86-110.85 111 111 0 0 0 110.86 110.85zm0-200.59a89.74 89.74 0 1 1 -89.74 89.74 89.84 89.84 0 0 1 89.74-89.74z" />
        <path
            d="m561.25 666.91a68.62 68.62 0 1 0 -68.63-68.62 68.7 68.7 0 0 0 68.63 68.62zm0-116.13a47.51 47.51 0 1 1 -47.51 47.51 47.56 47.56 0 0 1 47.51-47.51z" />
        <path
            d="m561.25 624.68a26.39 26.39 0 1 0 -26.4-26.39 26.42 26.42 0 0 0 26.4 26.39zm0-31.67a5.28 5.28 0 1 1 -5.28 5.28 5.28 5.28 0 0 1 5.28-5.29z" />
    </g>
</svg>