<svg viewBox="0 0 816 1158" xmlns="http://www.w3.org/2000/svg">
    <rect fill="#060709" height="1158" rx="70" width="816" />
    <g fill="#f5f1e5">
        <path
            d="m57.83 53.7q5.54 0 7.5 1.74a6.54 6.54 0 0 1 2.3 4.1c0 .22.18 1.88.55 5s.81 7.11 1.34 12 1.13 10.46 1.82 16.58 1.39 12.46 2.13 18.88 1.45 12.72 2.13 18.88 1.29 11.67 1.82 16.51 1 8.75 1.27 11.69.47 4.48.47 4.59-.18.5-.87.87a9.31 9.31 0 0 1 -3.87.55 9.27 9.27 0 0 1 -3.71-.47 2.6 2.6 0 0 1 -1-.79q0-.17-.39-3.48c-.27-2.21-.56-4.64-.87-7.27s-.61-5.06-.87-7.27-.4-3.47-.4-3.79c-.1-.73-.47-1.1-1.1-1.1h-15.83c-.85 0-1.32.31-1.43.94 0 .22-.15 1.43-.47 3.64s-.63 4.63-1 7.26-.61 5.09-.87 7.35-.39 3.45-.39 3.56a2.09 2.09 0 0 1 -1 1 10.57 10.57 0 0 1 -4 .47 11.33 11.33 0 0 1 -3.95-.4c-.53-.26-.74-.55-.63-.86 0-.11.16-1.64.47-4.59s.77-6.84 1.35-11.69 1.2-10.4 1.88-16.6 1.4-12.48 2.14-19 1.47-12.8 2.21-19 1.37-11.69 1.89-16.59 1-8.85 1.35-11.85.55-4.61.55-4.82a6.9 6.9 0 0 1 2.21-4.42q1.91-1.62 7.27-1.62zm7 78.84c.84 0 1.16-.53 1-1.58 0-.1-.16-1.39-.47-3.87s-.72-5.66-1.19-9.56-1-8.22-1.58-13-1.16-9.38-1.74-13.91-1.18-8.62-1.6-12.43-.74-6.69-1-8.69c-.1-.84-.21-1.21-.31-1.11a2.8 2.8 0 0 0 -.32 1.11q-.31 3-1 8.69t-1.48 12.48q-.78 6.8-1.73 13.91t-1.66 13c-.48 3.9-.87 7.11-1.19 9.64s-.47 3.85-.47 4c0 .95.31 1.42.95 1.42z" />
        <path
            d="m85.84 247a14 14 0 1 1 -28 0 14 14 0 1 1 -14-14c.41 0 .82 0 1.22.06a14 14 0 1 1 25.58 0c.4 0 .81-.06 1.22-.06a14 14 0 0 1 13.98 14z" />
        <path
            d="m74.56 269h-33.35a16.36 16.36 0 0 0 16.22-14.28l.46-.39.46.39a16.34 16.34 0 0 0 16.21 14.28z" />
        <path
            d="m752.38 1102.3q-5.53 0-7.51-1.74a6.55 6.55 0 0 1 -2.29-4.11c0-.21-.18-1.87-.55-5s-.82-7.11-1.35-12-1.13-10.43-1.81-16.59-1.4-12.46-2.14-18.88-1.44-12.72-2.13-18.88-1.29-11.67-1.82-16.51-.94-8.75-1.26-11.7-.47-4.47-.47-4.58.18-.5.87-.87a14.36 14.36 0 0 1 7.58-.08 2.69 2.69 0 0 1 1 .79q0 .17.39 3.48c.27 2.21.55 4.63.87 7.27s.61 5.05.87 7.27.39 3.47.39 3.79c.11.73.48 1.1 1.11 1.1h15.87c.84 0 1.32-.31 1.42-.94 0-.22.16-1.43.48-3.64s.63-4.63.94-7.27.61-5.08.87-7.34.4-3.45.4-3.56a2 2 0 0 1 1-1 10.54 10.54 0 0 1 4-.47 11.29 11.29 0 0 1 4 .4c.53.26.74.55.64.86q0 .17-.48 4.59t-1.34 11.69q-.87 7.26-1.9 16.51t-2.13 19q-1.11 9.72-2.21 19t-1.9 16.59q-.78 7.35-1.34 11.85c-.37 3-.55 4.61-.55 4.82a6.86 6.86 0 0 1 -2.22 4.42q-1.93 1.73-7.3 1.73zm-7-78.84c-.84 0-1.15.52-.94 1.58 0 .1.15 1.39.47 3.87s.71 5.66 1.19 9.56 1 8.21 1.58 13 1.16 9.38 1.73 13.91 1.08 8.69 1.5 12.48.74 6.69.95 8.69c.11.84.21 1.21.32 1.11a2.86 2.86 0 0 0 .31-1.11q.33-3 1-8.69t1.5-12.48q.8-6.8 1.74-13.91t1.66-13c.47-3.9.87-7.11 1.18-9.64s.48-3.85.48-3.95c0-1-.32-1.42-1-1.42z" />
        <path
            d="m724 909a14 14 0 1 1 28 0 14 14 0 1 1 14 14c-.41 0-.82 0-1.22-.06a14 14 0 1 1 -25.58 0 12.1 12.1 0 0 1 -1.2.06 14 14 0 0 1 -14-14z" />
        <path
            d="m735.28 887h33.35a16.34 16.34 0 0 0 -16.21 14.28l-.46.39-.46-.39a16.36 16.36 0 0 0 -16.22-14.28z" />
        <path
            d="m591 883.5h-364.72c91.06 0 166.22-68.12 177.31-156.19l5-4.27 5 4.27c11.15 88.07 86.27 156.19 177.41 156.19z" />
        <path
            d="m561.16 489.66c-4.48 0-8.93.18-13.31.58a153.16 153.16 0 1 0 -279.7 0c-4.38-.4-8.83-.58-13.31-.58a153.16 153.16 0 1 0 153.16 153.16 153.16 153.16 0 1 0 153.16-153.16zm-305.66 286.34c-73.61 0-133.5-59.91-133.5-133.52s59.89-133.48 133.5-133.48 133.5 59.87 133.5 133.48-59.89 133.52-133.5 133.52z" />
        <path
            d="m255.5 529a113.5 113.5 0 1 0 113.5 113.48 113.63 113.63 0 0 0 -113.5-113.48zm0 207a93.5 93.5 0 1 1 93.5-93.5 93.6 93.6 0 0 1 -93.5 93.5z" />
        <path
            d="m255.5 569a73.5 73.5 0 1 0 73.5 73.5 73.58 73.58 0 0 0 -73.5-73.5zm0 127a53.5 53.5 0 1 1 53.5-53.5 53.56 53.56 0 0 1 -53.5 53.5z" />
        <path
            d="m255.5 609a33.5 33.5 0 1 0 33.5 33.5 33.54 33.54 0 0 0 -33.5-33.5zm0 47a13.5 13.5 0 1 1 13.5-13.5 13.52 13.52 0 0 1 -13.5 13.5z" />
    </g>
</svg>