<svg viewBox="0 0 816 1158" xmlns="http://www.w3.org/2000/svg">
    <rect fill="#f5f1e5" height="1158" rx="70" width="816" />
    <g fill="#ec1f26">
        <path
            d="m57.83 53.7q5.54 0 7.51 1.74a6.57 6.57 0 0 1 2.29 4.1c0 .22.18 1.88.55 5s.81 7.11 1.34 12 1.13 10.46 1.82 16.58 1.39 12.46 2.13 18.88 1.45 12.72 2.14 18.88 1.28 11.67 1.81 16.51 1 8.75 1.27 11.69.47 4.48.47 4.59-.18.5-.87.87a9.28 9.28 0 0 1 -3.87.55 9.27 9.27 0 0 1 -3.71-.47 2.6 2.6 0 0 1 -1-.79q0-.17-.39-3.48c-.27-2.21-.56-4.64-.87-7.27s-.61-5.06-.87-7.27-.4-3.47-.4-3.79c-.1-.73-.47-1.1-1.1-1.1h-15.83c-.85 0-1.32.31-1.43.94 0 .22-.15 1.43-.47 3.64s-.63 4.63-1 7.26-.6 5.09-.87 7.35-.39 3.45-.39 3.56a2.09 2.09 0 0 1 -1 1 10.57 10.57 0 0 1 -4 .47 11.33 11.33 0 0 1 -3.95-.4c-.53-.26-.74-.55-.63-.86 0-.11.16-1.64.47-4.59s.77-6.84 1.35-11.69 1.2-10.4 1.88-16.6 1.4-12.48 2.14-19 1.47-12.8 2.21-19 1.37-11.69 1.89-16.59 1-8.85 1.35-11.85.55-4.61.55-4.82a6.9 6.9 0 0 1 2.21-4.42q1.91-1.62 7.27-1.62zm7 78.84c.84 0 1.16-.53 1-1.58 0-.1-.16-1.39-.47-3.87s-.71-5.66-1.19-9.56-1-8.22-1.58-13-1.16-9.38-1.74-13.91-1.18-8.62-1.6-12.43-.74-6.69-1-8.69c-.1-.84-.21-1.21-.31-1.11a2.8 2.8 0 0 0 -.32 1.11q-.31 3-1 8.69t-1.48 12.48q-.78 6.8-1.73 13.91t-1.66 13c-.48 3.9-.87 7.11-1.19 9.64s-.47 3.85-.47 4c0 .95.31 1.42.95 1.42z" />
        <path
            d="m72.36 213.31a14 14 0 0 0 -14 13.37 14 14 0 1 0 -19.49 13.53 42 42 0 0 1 13.26 8.91l6 6h.41l6-6a42 42 0 0 1 13.26-8.91 14 14 0 0 0 -5.49-26.9z" />
        <path
            d="m752.38 1102.3q-5.53 0-7.51-1.74a6.55 6.55 0 0 1 -2.29-4.11c0-.21-.18-1.87-.55-5s-.82-7.11-1.34-12-1.14-10.43-1.82-16.59-1.4-12.46-2.13-18.88-1.45-12.72-2.14-18.88-1.29-11.67-1.82-16.51-.94-8.75-1.26-11.7-.47-4.47-.47-4.58.18-.5.87-.87a14.36 14.36 0 0 1 7.58-.08 2.69 2.69 0 0 1 1 .79q0 .17.39 3.48t.87 7.27q.48 3.95.87 7.27c.26 2.21.4 3.47.4 3.79.1.73.47 1.1 1.1 1.1h15.87c.85 0 1.32-.31 1.42-.94 0-.22.16-1.43.48-3.64s.63-4.63.95-7.27.6-5.08.86-7.34.4-3.45.4-3.56a2.09 2.09 0 0 1 1-1 10.57 10.57 0 0 1 4-.47 11.26 11.26 0 0 1 3.94.4c.53.26.74.55.64.86q0 .17-.48 4.59t-1.34 11.69q-.87 7.26-1.9 16.51t-2.13 19q-1.1 9.72-2.21 19t-1.9 16.59q-.78 7.35-1.34 11.85c-.37 3-.55 4.61-.55 4.82a6.9 6.9 0 0 1 -2.21 4.42q-1.88 1.73-7.25 1.73zm-7-78.84c-.84 0-1.15.52-.94 1.58 0 .1.16 1.39.47 3.87s.71 5.66 1.19 9.56 1 8.21 1.58 13 1.16 9.38 1.73 13.91 1.09 8.69 1.51 12.48.73 6.69.94 8.69c.11.84.22 1.21.32 1.11a2.86 2.86 0 0 0 .31-1.11q.33-3 1-8.69t1.5-12.48q.8-6.8 1.74-13.91t1.66-13q.7-5.85 1.19-9.64c.31-2.53.47-3.85.47-3.95 0-1-.32-1.42-1-1.42z" />
        <path
            d="m780 928.69a14 14 0 0 0 -8.51-12.9 42 42 0 0 1 -13.26-8.91l-6-6h-.41l-6 6a42 42 0 0 1 -13.26 8.91 14 14 0 1 0 19.44 13.53 14 14 0 0 0 28-.63z" />
        <path
            d="m552.84 362.5a145 145 0 0 0 -144.84 138.43 145 145 0 1 0 -201.67 140 435 435 0 0 1 137.21 92.25l62.31 62.31h4.3l62.31-62.31a435 435 0 0 1 137.21-92.25 145 145 0 0 0 -56.83-278.43zm-290 270a125 125 0 1 1 125-125 125.14 125.14 0 0 1 -124.99 125z" />
        <path
            d="m262.85 402.5a105 105 0 1 0 105 105 105.12 105.12 0 0 0 -105-105zm0 190a85 85 0 1 1 85-85 85.1 85.1 0 0 1 -85 85z" />
        <path
            d="m262.85 442.5a65 65 0 1 0 65 65 65.07 65.07 0 0 0 -65-65zm0 110a45 45 0 1 1 45-45 45 45 0 0 1 -45 45z" />
        <path
            d="m262.85 482.5a25 25 0 1 0 25 25 25 25 0 0 0 -25-25zm0 30a5 5 0 1 1 5-5 5 5 0 0 1 -5 5z" />
    </g>
</svg>