<svg viewBox="0 0 816 1158" xmlns="http://www.w3.org/2000/svg">
    <rect fill="#f5f1e5" height="1158" rx="70" width="816" />
    <g fill="#ec1f26">
        <path
            d="m786.1 914.43-.53-.62a30.17 30.17 0 0 1 -26.57-26.59l-.63-.53h-.52l-.62.53a30.19 30.19 0 0 1 -26.59 26.59l-.53.62v.57l.53.63a30.17 30.17 0 0 1 26.59 26.58l.62.53h.52l.63-.53a30.15 30.15 0 0 1 26.58-26.58l.53-.63z" />
        <path
            d="m86.5 241.05-.53-.63a30.15 30.15 0 0 1 -26.58-26.58l-.63-.53h-.52l-.63.53a31.31 31.31 0 0 1 -8.61 17.91 31.3 31.3 0 0 1 -18 8.67l-.53.63v.52l.53.62a31.35 31.35 0 0 1 18 8.65 31.27 31.27 0 0 1 8.64 17.94l.63.53h.52l.63-.53a30.17 30.17 0 0 1 26.58-26.59l.53-.62z" />
        <text font-family="ArvilSans, Arvil" font-size="158" transform="translate(33.18 164.3)">A
        </text>
        <text font-family="ArvilSans, Arvil" font-size="158"
            transform="matrix(-1 0 0 -1 777.03 991.7)">A
        </text>
        <path
            d="m714 576.12-5.76-6.79a342.52 342.52 0 0 1 -196.09-94.48 342.55 342.55 0 0 1 -94.48-196.09l-6.79-5.76h-5.76l-6.79 5.76a342.54 342.54 0 0 1 -94.16 195.78 342.55 342.55 0 0 1 -196.41 94.79l-5.76 6.79v5.76l5.76 6.79a342.59 342.59 0 0 1 196.11 94.47 342.62 342.62 0 0 1 94.46 196.1l6.79 5.76h5.76l6.79-5.76a329.68 329.68 0 0 1 290.57-290.57l5.76-6.79zm-215.46 92.35-.21.2-.2.21a360.37 360.37 0 0 0 -90.13 156.69c-.08.67-.08-492.33 0-493.15a360.38 360.38 0 0 0 89.81 156.37l.2.21.21.2a360.41 360.41 0 0 0 156.35 89.8 360.45 360.45 0 0 0 -156.03 89.47z" />
        <path
            d="m484.28 503.54-.42-.41-.39-.4a385.9 385.9 0 0 1 -55.47-72.3v297.13a386 386 0 0 1 55.84-72.64l.41-.42.41-.39a380.36 380.36 0 0 1 110.55-75.11 380.46 380.46 0 0 1 -110.93-75.46zm-13.58 136.21-.6.58-.62.64q-11.26 11.55-21.48 23.85v-171.65q10.1 12.09 21.18 23.5l.58.6.64.62a406.57 406.57 0 0 0 80.7 61.11 406.3 406.3 0 0 0 -80.4 60.75z" />
        <path d="m468 543.05a429.91 429.91 0 0 0 45.52 35.95 431.2 431.2 0 0 0 -45.52 35.93z" />
    </g>
</svg>